<?xml version="1.0" standalone="no"?>
<!DOCTYPE svg PUBLIC "-//W3C//DTD SVG 20010904//EN"
 "http://www.w3.org/TR/2001/REC-SVG-20010904/DTD/svg10.dtd">
<svg version="1.0" xmlns="http://www.w3.org/2000/svg"
 width="700.000000pt" height="700.000000pt" viewBox="0 0 700.000000 700.000000"
 preserveAspectRatio="xMidYMid meet">
<metadata>
Created by potrace 1.11, written by Peter Selinger 2001-2013
</metadata>
<g transform="translate(0.000000,700.000000) scale(0.100000,-0.100000)"
fill="#000000" stroke="none">
<path d="M954 6940 c-406 -34 -749 -321 -866 -726 l-23 -79 0 -2635 0 -2635
24 -80 c100 -343 349 -591 696 -696 l80 -24 2635 0 2635 0 80 24 c349 105 604
362 697 702 l23 84 0 2630 0 2630 -23 79 c-83 287 -279 518 -545 641 -105 49
-205 74 -337 85 -136 11 -4937 11 -5076 0z m3714 -676 c24 -17 29 -53 10 -72
-8 -8 -57 -12 -155 -12 -311 0 -562 -61 -868 -210 -238 -115 -450 -263 -648
-451 l-89 -84 19 -35 c24 -47 24 -152 0 -199 -17 -34 -17 -34 5 -50 13 -8 112
-82 221 -164 355 -266 755 -596 1019 -839 l95 -88 33 17 c48 23 117 27 169 10
l44 -16 67 72 c310 333 699 796 914 1087 150 203 155 210 173 210 22 0 53 -29
53 -50 0 -60 -466 -647 -878 -1106 -97 -109 -194 -217 -214 -240 l-38 -42 16
-38 c21 -50 21 -141 -1 -183 l-16 -32 140 -145 c78 -80 141 -148 141 -152 0
-4 -19 -17 -43 -30 l-42 -23 -130 137 -130 136 -54 -16 c-68 -20 -88 -20 -147
0 l-46 16 -372 -369 c-397 -395 -609 -588 -862 -785 -55 -44 -60 -50 -56 -81
l4 -34 126 -6 c383 -20 1040 4 1436 52 l66 7 0 -51 0 -52 -137 -12 c-76 -7
-178 -16 -228 -21 -188 -20 -632 -32 -952 -27 -183 3 -333 2 -333 -2 1 -11
247 -147 400 -220 157 -76 345 -152 481 -197 l87 -28 15 -56 c9 -30 15 -56 13
-57 -5 -5 -274 90 -402 142 -193 79 -468 218 -618 313 -38 24 -40 24 -75 7
-56 -27 -128 -30 -186 -8 l-50 18 -145 -101 c-137 -96 -472 -316 -574 -376
l-46 -27 31 -88 c91 -257 254 -498 433 -639 109 -86 165 -113 509 -237 40 -14
52 -42 32 -73 -8 -13 -24 -24 -34 -24 -10 0 -70 17 -132 39 -401 137 -763 362
-1095 684 l-123 118 -88 -44 c-92 -46 -122 -49 -137 -11 -12 31 5 54 62 83
105 54 104 45 24 145 -175 218 -362 537 -472 809 -20 47 -28 57 -48 57 -91 0
-180 71 -207 165 -9 31 -14 67 -11 80 5 21 -3 30 -64 69 -140 91 -206 176
-168 214 22 22 49 13 102 -34 54 -49 159 -124 174 -124 4 0 20 12 34 28 l26
27 -23 105 c-64 282 -91 674 -66 935 40 416 157 809 351 1180 43 84 70 148 74
180 23 159 94 388 127 406 11 5 29 7 40 4 36 -12 38 -43 7 -128 -16 -44 -27
-81 -25 -84 3 -2 25 24 50 59 51 70 142 182 230 281 52 58 57 68 47 87 -9 17
-8 27 5 47 15 22 22 24 53 19 33 -5 41 0 106 57 133 118 163 139 193 135 20
-2 30 -11 38 -32 8 -25 6 -31 -21 -55 -17 -14 -67 -57 -111 -96 -45 -38 -79
-73 -77 -76 2 -3 63 -43 136 -89 73 -46 257 -165 408 -265 l276 -181 28 28
c60 61 158 84 230 54 l38 -16 92 88 c385 367 843 603 1315 677 128 20 390 19
419 -1z m1191 -1074 c28 -14 33 -65 21 -212 -35 -439 -177 -934 -430 -1503
-34 -77 -65 -143 -69 -147 -4 -5 -23 9 -43 30 l-36 37 50 110 c252 553 417
1150 431 1559 3 92 6 111 22 122 22 17 30 17 54 4z m-702 -1857 c53 -22 118
-88 144 -146 20 -46 23 -72 27 -228 l4 -177 45 15 c58 20 155 13 210 -15 46
-24 120 -103 129 -139 4 -13 7 -23 8 -23 0 0 25 9 54 20 134 51 280 -3 348
-130 11 -19 19 -36 19 -37 0 -1 25 7 55 17 144 50 281 -4 347 -138 l28 -57 3
-365 c5 -542 -16 -736 -100 -908 -42 -88 -159 -207 -244 -250 -69 -35 -163
-67 -244 -83 -96 -18 -300 -27 -439 -18 -234 15 -377 64 -528 179 -43 32 -268
249 -500 482 -415 416 -422 424 -438 482 -22 75 -14 146 26 225 54 108 144
164 264 165 100 1 155 -28 282 -148 l102 -97 3 598 c3 595 3 598 25 639 72
134 234 194 370 137z m-997 -1818 l33 -34 -56 -65 c-300 -341 -689 -674 -935
-801 -44 -23 -57 -26 -78 -17 -18 9 -24 19 -24 42 0 26 7 35 46 58 115 67 229
146 349 243 137 110 446 406 555 533 36 41 67 76 71 76 3 0 20 -16 39 -35z"/>
<path d="M1551 5797 c-136 -155 -193 -228 -301 -390 l-98 -147 -7 -107 c-33
-474 130 -1030 447 -1525 l49 -77 34 15 c19 8 56 14 83 14 l49 0 22 83 c93
339 267 760 440 1062 62 107 171 277 246 381 l36 52 -21 42 c-11 22 -22 62
-24 88 l-2 47 -131 91 c-121 84 -454 300 -650 422 l-82 51 -90 -102z"/>
<path d="M2790 5082 c-37 -13 -53 -13 -103 -3 -33 7 -60 11 -61 9 -2 -2 -30
-41 -64 -88 -250 -349 -482 -839 -623 -1319 l-39 -135 29 -30 c80 -85 89 -192
25 -287 l-33 -49 167 -171 c147 -151 345 -332 470 -428 l43 -34 22 21 c79 71
191 78 282 17 45 -31 30 -39 215 115 261 219 368 318 730 677 l365 361 -18 49
c-20 56 -21 114 -3 164 l13 37 -81 74 c-218 200 -415 367 -682 581 -172 136
-599 458 -605 456 -2 -1 -24 -8 -49 -17z"/>
<path d="M1003 4965 c-119 -260 -200 -535 -250 -855 -14 -89 -18 -173 -18
-375 1 -276 16 -425 68 -661 l22 -99 58 -6 c110 -12 185 -93 196 -212 l6 -61
75 -24 c110 -34 459 -122 487 -122 22 0 23 2 23 93 0 79 13 239 36 437 l6 55
-35 13 c-19 7 -53 32 -75 56 -61 66 -78 155 -46 235 16 39 15 40 -14 83 -97
142 -240 408 -303 566 -114 282 -170 517 -193 802 l-11 144 -32 -69z"/>
<path d="M1816 3130 c-12 -39 -38 -302 -43 -446 l-6 -161 79 -12 c273 -42 597
-81 674 -81 49 0 36 30 -35 84 -164 123 -416 356 -578 536 -58 65 -87 90 -91
80z"/>
<path d="M995 2570 l-28 -30 57 -130 c62 -139 147 -296 228 -425 54 -84 202
-288 249 -342 l27 -32 114 66 c62 36 115 67 116 68 2 2 -6 43 -18 92 -30 124
-58 322 -66 474 l-7 128 -56 11 c-119 24 -380 91 -465 120 -50 16 -97 30 -106
30 -9 0 -29 -13 -45 -30z"/>
<path d="M1770 2369 c1 -114 44 -432 73 -528 l12 -41 200 128 c195 124 291
188 447 300 66 47 76 58 67 73 -12 23 -16 24 -229 44 -162 15 -495 59 -547 72
-22 5 -23 2 -23 -48z"/>
<path d="M1692 1591 c-45 -27 -85 -50 -88 -53 -8 -9 84 -105 194 -201 112 -97
242 -202 242 -194 0 2 -21 35 -46 73 -54 82 -143 262 -176 357 -12 37 -27 67
-33 66 -5 0 -47 -22 -93 -48z"/>
<path d="M5006 3170 c-15 -5 -37 -17 -48 -27 -49 -44 -48 -23 -48 -809 l0
-736 -217 209 c-120 116 -228 215 -240 221 -12 7 -38 12 -58 12 -110 0 -188
-111 -146 -205 21 -46 804 -830 884 -884 155 -106 399 -153 679 -131 284 22
449 104 536 268 68 127 82 262 82 775 0 407 -2 420 -62 457 -65 40 -159 16
-193 -49 -12 -24 -15 -67 -15 -214 0 -171 -1 -186 -21 -211 -28 -36 -80 -36
-108 0 -20 25 -21 39 -21 281 0 287 -3 299 -70 333 -50 25 -94 25 -135 0 -57
-35 -65 -73 -65 -305 0 -192 -1 -206 -20 -225 -27 -27 -81 -26 -106 1 -18 19
-19 44 -24 325 l-5 304 -33 32 c-29 30 -38 33 -92 33 -54 0 -63 -3 -92 -33
l-33 -32 -5 -246 c-5 -243 -5 -246 -29 -265 -31 -26 -73 -24 -99 4 -21 22 -21
27 -24 528 -3 463 -4 507 -21 532 -34 51 -94 75 -151 57z"/>
</g>
</svg>
